# xmcd
#
# Track frame offsets:
#	150
#	40460
#	95801
#	152480
#	231217
#
# Disc length: 3708 seconds
#
# Revision: 0
# Processed by: cddbd v1.5.2PL0 Copyright (c) Steve Scherf et al.
# Submitted via: audiograbber 1.83.01
#
DISCID=390e7a05
DTITLE=Grateful Dead - 93-01-26 Oakland Coliseum Arena, Oakland CA
DYEAR=1900
DGENRE=
TTITLE0=Men Smart, Women Are Smarter
TTITLE1=Eyes Of The World
TTITLE2=Estimated Prophet
TTITLE3=Terrapin Station
TTITLE4=Drums
EXTD=
EXTT0=
EXTT1=
EXTT2=
EXTT3=
EXTT4=
PLAYORDER=
